ply
format ascii 1.0
element vertex 8
property float x
property float y
property float z
property float nx
property float ny
property float nz
property float f_dc_0
property float f_dc_1
property float f_dc_2
property float opacity
property float scale_0
property float scale_1
property float scale_2
property float rot_0
property float rot_1
property float rot_2
property float rot_3
property uchar red
property uchar green
property uchar blue
end_header
0 0 0 0 0 1 1 1 1 1 1 1 1 1 0 0 0 255 0 0
1 0 0 0 0 1 1 1 1 1 1 1 1 1 0 0 0 0 255 0
1 1 0 0 0 1 1 1 1 1 1 1 1 1 0 0 0 0 0 255
0 1 0 0 0 1 1 1 1 1 1 1 1 1 0 0 0 255 255 0
0 0 1 0 0 1 1 1 1 1 1 1 1 1 0 0 0 255 0 255
1 0 1 0 0 1 1 1 1 1 1 1 1 1 0 0 0 0 255 255
1 1 1 0 0 1 1 1 1 1 1 1 1 1 0 0 0 255 255 255
0 1 1 0 0 1 1 1 1 1 1 1 1 1 0 0 0 128 128 128 